<svg width="0" height="0" class="hidden">
  <symbol xmlns="http://www.w3.org/2000/svg" viewBox="0 0 64 64" id="read-email-1">
    <title>Read Email</title>
    <desc>A line styled icon from Orion Icon Library.</desc>
    <path data-name="layer1"
    fill="none" stroke="#ec7f00" stroke-miterlimit="10" stroke-width="2" d="M10 21.1L2 28m52-6.9l8 6.9"
    stroke-linejoin="miter" stroke-linecap="butt"></path>
    <path data-name="layer2" fill="none" stroke="#ec7f00" stroke-miterlimit="10"
    stroke-width="2" d="M54 33.6V2H10v31.6M18 12h10m-4 8h22m-28 8h28" stroke-linejoin="miter"
    stroke-linecap="butt"></path>
    <path data-name="layer1" fill="none" stroke="#ec7f00" stroke-miterlimit="10"
    stroke-width="2" d="M62 28v34H2V28m40.1 13.9L62 28M2 28l19.9 13.9" stroke-linejoin="miter"
    stroke-linecap="butt"></path>
    <path data-name="layer1" d="M2 62l20.9-21.1c3.9-3.9 14.2-3.9 18.1 0L62 62"
    fill="none" stroke="#ec7f00" stroke-miterlimit="10" stroke-width="2" stroke-linejoin="miter"
    stroke-linecap="butt"></path>
  </symbol>
  <symbol xmlns="http://www.w3.org/2000/svg" viewBox="0 0 64 64" id="envelope-1">
    <title>Envelope</title>
    <desc>A line styled icon from Orion Icon Library.</desc>
    <path data-name="layer2"
    fill="none" stroke="#ec7f00" stroke-miterlimit="10" stroke-width="2" d="M2 12l30 27.4L62 12"
    stroke-linejoin="miter" stroke-linecap="butt"></path>
    <path data-name="layer1" fill="none" stroke="#ec7f00" stroke-miterlimit="10"
    stroke-width="2" d="M2 12h60v40H2z" stroke-linejoin="miter" stroke-linecap="butt"></path>
  </symbol>
  <symbol viewBox="0 0 64 64" xmlns="http://www.w3.org/2000/svg" id="world-globe-1">
    <title>World Globe</title>
    <desc>A line styled icon from Orion Icon Library.</desc>
    <ellipse stroke-width="2"
    stroke-miterlimit="10" stroke="#ec7f00" fill="none" ry="30" rx="16.1" cy="32"
    cx="32" data-name="layer2" stroke-linejoin="miter" stroke-linecap="butt"></ellipse>
    <path d="M4.5 44h55m-55-24h55M32 2v60" stroke-width="2" stroke-miterlimit="10"
    stroke="#ec7f00" fill="none" data-name="layer2" stroke-linejoin="miter"
    stroke-linecap="butt"></path>
    <circle stroke-width="2" stroke-miterlimit="10" stroke="#ec7f00"
    fill="none" r="30" cy="32" cx="32" data-name="layer1" stroke-linejoin="miter"
    stroke-linecap="butt"></circle>
  </symbol>
  <symbol xmlns="http://www.w3.org/2000/svg" viewBox="0 0 64 64" id="github-1">
    <title>Github</title>
    <desc>A line styled icon from Orion Icon Library.</desc>
    <path data-name="layer1"
    d="M32 1.952a30.019 30.019 0 0 0-9.469 58.5c1.5.281 2.063-.656 2.063-1.406v-5.625c-8.344 1.779-10.125-3.563-10.125-3.563-1.406-3.469-3.375-4.406-3.375-4.406-2.719-1.875.187-1.781.187-1.781 3 .188 4.594 3.094 4.594 3.094 2.719 4.594 7.031 3.281 8.719 2.531a6.5 6.5 0 0 1 1.875-4.031c-6.656-.75-13.688-3.375-13.688-14.812a11.5 11.5 0 0 1 3.094-8.063 11.217 11.217 0 0 1 .281-7.969s2.531-.844 8.25 3.094a28.944 28.944 0 0 1 7.5-1.031 28.4 28.4 0 0 1 7.5 1.031c5.719-3.844 8.25-3.094 8.25-3.094a11.217 11.217 0 0 1 .281 7.969 11.34 11.34 0 0 1 3.094 8.063c0 11.531-7.031 14.063-13.688 14.813a7.262 7.262 0 0 1 2.063 5.534v8.25c0 .844.562 1.687 2.063 1.406A30.019 30.019 0 0 0 32 1.952z"
    fill="none" stroke="#ec7f00" stroke-linecap="butt" stroke-miterlimit="10"
    stroke-width="2" stroke-linejoin="miter"></path>
  </symbol>
  <symbol xmlns="http://www.w3.org/2000/svg" viewBox="0 0 64 64" id="certificate-1">
    <title>Certificate</title>
    <desc>A line styled icon from Orion Icon Library.</desc>
    <path data-name="layer2"
    d="M50 46V10a8 8 0 0 0-8-8H9.2c4.4 0 6.8 3.6 6.8 8v44a8 8 0 0 0 8 8" fill="none"
    stroke="#ec7f00" stroke-linecap="butt" stroke-linejoin="miter" stroke-width="2"></path>
    <path data-name="layer2" d="M54 46H24a8 8 0 0 1 0 16h30a8 8 0 0 0 0-16zM9.2 2C4.8 2 2 5.6 2 10h14"
    fill="none" stroke="#ec7f00" stroke-linecap="butt" stroke-linejoin="miter"
    stroke-width="2"></path>
    <path data-name="layer1" fill="none" stroke="#ec7f00" stroke-linecap="butt"
    stroke-linejoin="miter" stroke-width="2" d="M26 14h14M26 24h14M26 34h14"></path>
  </symbol>
  <symbol xmlns="http://www.w3.org/2000/svg" viewBox="0 0 64 64" id="linkedin-1">
    <title>Linkedin</title>
    <desc>A line styled icon from Orion Icon Library.</desc>
    <path data-name="layer1"
    fill="none" stroke="#ec7f00" stroke-linecap="butt" stroke-miterlimit="10"
    stroke-width="2" d="M3.078 22.331h12.188v36.844H3.078z" stroke-linejoin="miter"></path>
    <path data-name="layer2" d="M46.719 21.112c-5.344 0-8.531 1.969-11.906 6.281v-5.062H22.625v36.844h12.281V39.206c0-4.219 2.156-8.344 7.031-8.344s7.781 4.125 7.781 8.25v20.063H62V38.269c0-14.532-9.844-17.157-15.281-17.157z"
    fill="none" stroke="#ec7f00" stroke-linecap="butt" stroke-miterlimit="10"
    stroke-width="2" stroke-linejoin="miter"></path>
    <path data-name="layer1" d="M9.219 4.425C5.188 4.425 2 7.331 2 10.894s3.188 6.469 7.219 6.469 7.219-2.906 7.219-6.469-3.188-6.469-7.219-6.469z"
    fill="none" stroke="#ec7f00" stroke-linecap="butt" stroke-miterlimit="10"
    stroke-width="2" stroke-linejoin="miter"></path>
  </symbol>
</svg>